<?xml version="1.0" encoding="UTF-8"?>
<!DOCTYPE svg PUBLIC "-//W3C//DTD SVG 1.1//EN" "http://www.w3.org/Graphics/SVG/1.1/DTD/svg11.dtd">
<!-- Creator: CorelDRAW 2018 (64 Bit Versão de avaliação) -->
<svg xmlns="http://www.w3.org/2000/svg" xml:space="preserve" width="1779px" height="425px" version="1.1" style="shape-rendering:geometricPrecision; text-rendering:geometricPrecision; image-rendering:optimizeQuality; fill-rule:evenodd; clip-rule:evenodd"
viewBox="0 0 1653.48 394.75"
 xmlns:xlink="http://www.w3.org/1999/xlink">
 <defs>
  <style type="text/css">
   <![CDATA[
    .fil1 {fill:#FFFFFF}
    .fil0 {fill:#00491E}
   ]]>
  </style>
 </defs>
 <g id="Camada_x0020_1">
  <metadata id="CorelCorpID_0Corel-Layer"/>
  <circle class="fil0" cx="197.37" cy="197.37" r="197.37"/>
  <g id="_2164283987024">
   <path class="fil1" d="M187.88 10.41c-45.3,2.77 -83.93,19.41 -115.87,47.99 -11.43,10.21 -23.96,24.98 -32.27,38.11 -20.52,32.41 -31.42,69.48 -29.36,110.41 5.04,99.75 90.6,183.2 196.81,177.47 44.52,-2.4 87.89,-21.25 118.52,-50.78 6.43,-6.2 14.09,-14.44 19.48,-21.51 11.36,-14.95 18.16,-26.29 25.78,-44.62 25.06,-60.28 14.79,-131.82 -24.17,-182.76 -5.68,-7.42 -15.42,-18.67 -22.24,-24.54 -5.02,-4.35 -6.68,-6.21 -12.54,-10.66 -34.88,-26.59 -78.05,-41.93 -124.14,-39.11l0 0zm-0.61 8.19c-101.4,6.6 -173.48,91.49 -168.7,189.12 2.63,53.83 31.18,97.64 57.54,121.19 17.13,15.33 32.43,25.5 54.72,34.72 22.58,9.32 49.49,14.05 76.85,12.57 95.1,-5.19 174.3,-87.62 168.49,-189.19 -2.22,-38.71 -15.46,-69.19 -36.27,-97.86 -17.89,-24.62 -48.27,-46.95 -76.16,-58.08 -22.29,-8.89 -49.31,-14.23 -76.47,-12.47l0 0z"/>
   <path class="fil1" d="M312.61 200.9l-132.85 -0.08 -0.09 29.85 92.79 0.13c-1.7,6.3 -10.17,17.14 -14.33,21.97 -4.64,5.37 -12.49,11.67 -20.06,16 -54.04,30.91 -123.74,-8.23 -123.09,-72.67 0.72,-69.84 82.69,-105.94 134.48,-62.9 2.07,1.73 2.95,2.48 4.78,4.34 2.53,2.58 2.24,2.09 6.86,2.07 11.94,-0.03 24.45,0.39 36.31,-0.03 -1.12,-5.12 -14.54,-20.47 -19.7,-25.51 -31.47,-30.82 -82.45,-40.49 -123.7,-23.39 -25.28,10.48 -44.02,27.89 -56.15,48.64 -13.71,23.5 -19.78,54.79 -11.31,85.97 14.77,54.3 67.98,89.94 124.41,83.45 41.8,-4.8 75.99,-31.72 91.53,-65.88 4.18,-9.19 11.05,-30.14 10.12,-41.96z"/>
   <path class="fil1" d="M46.79 206.6c-9.3,1.55 -15.98,6.59 -14.92,17.18 0.97,9.58 7.71,15.39 18.45,14.11 9.48,-1.15 16.04,-7.01 15.01,-17.35 -0.94,-9.67 -8.11,-15.67 -18.54,-13.94l0 0zm0.28 6.82c-5.78,1.11 -10.66,3.75 -9.45,10.72 1.01,5.93 5.83,8.2 12.81,6.87 14.58,-2.77 11.49,-20.46 -3.36,-17.59l0 0z"/>
   <path class="fil1" d="M188.46 30.6c-9.48,1.35 -13.97,8.47 -12.97,19.32 0.85,9.36 7.91,15.2 18.47,13.88 18.97,-2.37 17.4,-36.5 -5.5,-33.2l0 0zm0.46 5.73c-6.25,1.86 -7.51,7.11 -6.61,13.35 0.78,5.47 4.7,10.23 11.51,8.31 10.07,-2.84 7.99,-25.51 -4.9,-21.66l0 0z"/>
   <path class="fil1" d="M342.23 237.51c2.01,7.13 10.92,7.98 14.43,1.99 1.32,-2.25 4.7,-16.29 4.93,-19.5l-31.29 -7.1c-1.47,2.72 -4.88,19.29 -4.03,22.39 0.78,2.92 3.85,5.62 7.05,6.22 5.12,0.98 6.63,-1.84 8.91,-4l0 0zm12.59 -12c-1.83,-1.02 -4.95,-1.58 -7.23,-1.74 -0.61,3.75 -4.12,12.04 0.93,13.06 3.24,0.63 4.08,-1.56 4.73,-4.1 0.49,-1.88 1.42,-5.21 1.57,-7.22zm-12.67 -3.16l-8.13 -1.85c-0.75,1.9 -1.53,6.08 -1.94,8.16 -0.67,3.3 0,5.93 3.21,6.34 3.43,0.42 4.41,-1.85 5.21,-4.64 0.56,-1.88 1.73,-6.23 1.65,-8.01l0 0z"/>
   <path class="fil1" d="M212.69 63.65l6.15 1.31c1.21,-1.95 2.69,-10.22 3.28,-13 6.45,0.61 6.66,3.92 8.78,9.5 2.78,7.32 1.27,7.3 10.07,8.54 -0.47,-2.22 -3.34,-10.74 -4.75,-13.01 -0.86,-1.4 -1.73,-2 -2.43,-3.26 13.56,-0.57 10.71,-12.67 8.08,-15.25 -2.68,-2.62 -16.7,-5.74 -21.92,-6.51l-7.26 31.68 0 0zm10.67 -16.88c4.6,1.07 13.12,4.41 13.86,-1.45 0.41,-3.26 -1.86,-4.18 -4.41,-4.8 -2.3,-0.54 -5.42,-1.5 -7.65,-1.66l-1.8 7.91 0 0z"/>
   <path class="fil1" d="M139.63 40.8l8.24 31.01 6.32 -1.56 -3.04 -11.61c3.48,-2.06 8.77,-1.76 12.39,-4.81 5.4,-4.54 4.05,-20.2 -10.28,-16.91 -3.27,0.75 -11.36,2.43 -13.63,3.88l0 0zm7.75 3.22l2.19 8.83c4.19,-0.1 10.97,-2.16 10.09,-6.99 -1.06,-5.83 -8.15,-2.46 -12.28,-1.84l0 0z"/>
   <path class="fil1" d="M53.34 246.63l5.51 12.51c1.78,-0.3 3.58,-1.16 4.82,-2.14l-2.68 -6.58c2.69,-1.96 3.59,-2.12 5.8,-0.41 5.82,4.51 6.35,12.44 -1.36,16.75 -3.83,2.14 -9.53,3.51 -13.12,0.23 -6.53,-5.96 -1.31,-11.72 -1.01,-12.47l-3.37 -5.05c-7.41,3.28 -5.68,15.66 0.22,21.66 11.89,12.13 38.81,-3.21 25.03,-22.96 -1.15,-1.67 -6.1,-7.4 -8.96,-6.65 -1.06,0.28 -10.39,4.61 -10.88,5.11l0 0z"/>
   <path class="fil1" d="M32.31 170.44l29.09 18.56 1.57 -6.95 -6.53 -3.67c-0.1,-2.7 1.68,-9.8 2.23,-12.78l7.73 -1.49 1.4 -6.92c-9.14,1.31 -20.81,3.95 -30.43,5.71 -2.61,0.48 -4.81,-0.63 -5.06,7.54l0 0zm8.25 -1.89c0.94,0.96 9.22,5.94 10.56,6.38l1.76 -8.34 -12.32 1.96 0 0z"/>
   <path class="fil1" d="M231 346.78c1.26,4.56 0.05,10.11 -4.56,9.1 -1.64,-0.36 -1.66,-1.1 -2.62,-2.4 -1.8,0.21 -4.34,1.22 -5.42,2.09 3.49,9.22 15.36,6.34 18.34,-1.16 2.45,-6.12 -0.67,-19 -5.89,-23.69 -6.54,-5.87 -17.97,-0.85 -17.01,9.11 0.95,9.75 10.5,12.64 15.12,8.42 0.42,-0.39 0.54,-0.65 1.03,-1.04 0.21,-0.18 0.24,-0.59 1.01,-0.42l0 -0.01zm-8.8 -12.84c-5.09,2.17 -1.39,13.82 4.52,10.87 4.65,-2.32 0.93,-13.19 -4.52,-10.87z"/>
   <path class="fil1" d="M115.38 320.28c0.89,-1.62 3.24,-4.61 5.53,-5.16 4.5,-1.08 4.88,2.24 4.5,5.52l5.16 2.64c4.13,-9.24 -5.96,-16.75 -14.36,-12.39 -4.31,2.24 -12.28,11.66 -12.23,19.41 0.05,9.22 10.94,13.99 17.76,7.26 6.33,-6.22 4.75,-18 -6.36,-17.28l0 0zm-1.08 4.27c-2.42,1.16 -4.26,3.55 -4.23,6.58 0.02,3.45 2.91,5.45 5.94,3.59 1.28,-0.78 3.76,-4.01 3.79,-6.51 0.01,-2.82 -2.6,-5.04 -5.5,-3.66z"/>
   <path class="fil1" d="M311.11 267.09l4.81 2.18 8.06 -16.01 7.79 3.85 -7.1 14.33c0.93,0.97 0.96,0.87 2.14,1.49 1.07,0.55 1.42,0.8 2.63,0.99l7.32 -14.11 6.35 3.02 -7.78 15.65 4.83 2.54c1.78,-3.46 10.38,-19.35 10.71,-21.54 -2.29,-1.5 -27.16,-14.17 -28.91,-14.53 -2.04,5.45 -10.2,18.73 -10.85,22.14l0 0z"/>
   <path class="fil1" d="M76.94 80.56c0.28,1.09 17.58,21.94 20.56,24.86 0.61,-0.3 17.94,-14.41 18.76,-15.75 -0.98,-1.58 -2.04,-2.48 -2.84,-3.89 -1.62,0.41 -2.12,1.08 -3.89,2.66l-10.38 8.59c-1.12,-0.8 -4.72,-5.03 -5.53,-6.53 1.19,-1.66 9.32,-7.82 12,-10.35 -0.33,-1.09 -2.39,-3.38 -3.15,-4.11 -1.16,0.39 0.01,-0.12 -0.82,0.39 -2.22,1.36 -9.65,8.77 -12.21,9.66 -0.98,-1.58 -3.52,-3.95 -3.92,-5.53l9.65 -8.13c0.65,-0.5 0.78,-0.67 1.55,-1.34 1.09,-0.93 1,-0.57 1.68,-1.71 -0.81,-1.49 -1.97,-2.32 -2.82,-3.87 -1.89,0.49 -15.98,12.76 -18.64,15.05l0 0z"/>
   <path class="fil1" d="M269.24 84.28c1.36,1.94 18.76,14.82 19.2,15.07 1.24,-0.93 2.28,-2.6 3.18,-3.87 -0.62,-1.05 -12.32,-10.2 -13.93,-11.13 0.58,-1.28 4.27,-6.17 5.36,-6.97 1.86,0.96 4.36,3.26 6.3,4.75 1.89,1.43 4.72,4.03 6.53,4.86 0.94,-0.88 2.74,-3.23 3.18,-4.26 -2.19,-1.63 -11.33,-8.59 -12.52,-10.04 1.37,-1.65 2.66,-4.05 4.38,-5.33 3.46,2.02 10.74,8.94 13.66,10.36 1.29,-1.08 2.57,-2.61 3.31,-4.29 -4.05,-2.73 -16.8,-13.65 -19.21,-14.48 -1.11,1.94 -3.15,4.31 -4.75,6.33l-9.83 12.55c-1.58,2.04 -3.59,4.28 -4.86,6.45l0 0z"/>
   <path class="fil1" d="M61.3 144.59l-2.1 5.94c9.15,1.94 13,-1.52 15.91,-7.85 6.22,-13.55 -6.92,-21.79 -15.33,-13.27 -2.36,2.38 -3.6,4.43 -6,6.82 -3.32,3.32 -6.5,1.64 -5.19,-3.11 0.37,-1.33 1.56,-3.37 2.2,-4.02 1.39,-1.45 2.95,-1.3 5.4,-1.14l2.27 -5.88c-7.65,-3.8 -12.86,3.37 -14.78,8.62 -1.36,3.69 -1.59,7.38 0.68,10.46 1.65,2.26 5.3,4.21 9.4,2.99 5.98,-1.79 9.7,-11.82 13.89,-11.44 3.9,0.34 3.62,5.47 2.09,8.31 -2.24,4.14 -3.54,3.28 -8.44,3.57l0 0z"/>
   <path class="fil1" d="M120.01 74.26c-1.94,0.56 -3.9,2.38 -5.48,3.36 1.71,4.08 7.8,7.05 13.84,4.83 4.44,-1.63 9.48,-5.15 10.57,-9.66 1.41,-5.74 -2.82,-11.11 -7.49,-11.77 -5.48,-0.76 -15.21,4.25 -17.23,1.23 -0.87,-3.17 1.38,-4.7 3.47,-5.81 3.64,-1.93 4.98,-0.57 7.15,1.09l5.49 -2.99c-1.68,-5.73 -9.73,-6.62 -16.88,-1.91 -6.89,4.54 -7.34,11.87 -2.02,15.67 6.77,4.85 17.22,-3.44 20.46,0.23 4.05,4.57 -6.92,13.19 -11.88,5.73l0 0z"/>
   <path class="fil1" d="M306.47 286.95c-15.99,3.18 -11.46,27.21 4.49,24.5 16.3,-2.76 12.09,-27.8 -4.49,-24.5z"/>
   <path class="fil1" d="M81.41 287.14c-15.85,4.38 -9.3,28.24 6.5,24.06 5.77,-1.52 10.83,-7.82 8.84,-15.39 -1.57,-5.91 -7.9,-10.72 -15.34,-8.66l0 -0.01z"/>
   <path class="fil1" d="M362.98 204.39c0.49,-2.02 0.19,-4.29 0.13,-6.41 -15.03,-0.52 -27.64,4.23 -27.7,-5.6 -0.03,-6.33 4.44,-6.45 10.17,-6.71 5.61,-0.24 11.18,-0.26 16.79,-0.58l0.1 -6.34c-3.2,-0.54 -18.56,0.31 -22.28,0.74 -7.57,0.88 -10.49,4.88 -10.36,12.91 0.13,7.49 3.13,12.35 10.35,12.66 3.95,0.17 19.68,0.07 22.8,-0.67l0 0z"/>
   <path class="fil1" d="M329.7 142.86c0.34,-1.84 -0.3,-4.99 -1.1,-6.48 -5.38,0.46 -9.28,-0.59 -10.07,-5.7 -0.78,-5.1 3.33,-7.76 6.32,-9.58 12.09,-7.36 19.19,4.07 12.89,9.91 0.57,1.37 3.09,4.42 4.69,5.14 1.71,-2.45 3.98,-4.83 3.72,-9.63 -0.51,-9.06 -10.1,-19.06 -24.14,-11.54 -16.55,8.88 -9.7,30.54 7.69,27.88z"/>
   <path class="fil1" d="M143.66 348.66l12.39 3.41 -1.65 6.47 5.62 1.47 1.91 -5.96 4.03 0.81 1.4 -5.28 -3.71 -0.95 5.51 -19.91c-6.39,-1.91 -3.63,-2.66 -14.58,6.48 -6.63,5.5 -10.72,7.14 -10.92,13.46zm7.28 -3.87l6.74 2.03 2.89 -10.17c-1.62,0.85 -3.41,2.51 -4.86,3.8 -1.49,1.32 -3.94,2.65 -4.77,4.34l0 0z"/>
   <path class="fil1" d="M244.89 349.85l12.45 -4.63 2.39 5.89 5.55 -1.99 -2.11 -5.96 3.44 -1.58 -1.68 -4.98 -3.9 1.24 -7.26 -19.06c-0.87,0.16 -3.51,1.02 -4.1,1.37 -1.76,0.99 -3.2,10.13 -3.74,12.4 -0.7,2.97 -1.29,5.67 -2.07,8.7 -1.29,5.13 -0.23,4.36 1.03,8.6l0 0zm3.83 -7.28c2,-0.62 5.03,-1.5 6.57,-2.74l-3.58 -9.51c-0.98,1.33 -2.95,10.26 -2.99,12.25z"/>
   <path class="fil1" d="M262.37 324.06l5.3 -2.26c-1.99,-6.86 3.15,-6.92 4.72,-6.14 1.14,0.59 2.12,2.04 2.01,3.85 -0.17,2.04 -1.39,2.53 -2.45,3.75l2.04 4.39c4.65,-4.32 8.26,-2.21 9.48,1.77 0.8,2.64 -0.39,4.73 -2.01,5.5 -3.1,1.48 -4.55,-0.39 -6.28,-1.36l-4.27 3.66c3.06,5.34 13.36,5.19 17.44,-2.04 3.97,-7.07 -0.5,-15.83 -9.45,-14.02 0.84,-3.43 1.57,-5.99 -0.73,-8.75 -1.58,-1.89 -4.85,-3.33 -8.51,-2.51 -2.82,0.62 -5.54,2.84 -6.82,4.76 -2.09,3.17 -1.58,5.77 -0.47,9.4l0 0z"/>
   <path class="fil1" d="M253.29 46.42l8.64 3.75 -10.77 24.55 5.97 2.84 10.87 -24.58 8.76 3.72 2.29 -5.05c-5.27,-1.73 -20.27,-9.69 -23.85,-10.18l-1.91 4.95 0 0z"/>
   <path class="fil1" d="M323.1 152.93l6.21 21.9 5.1 -1.35 -4.22 -15.44c1.64,-1.24 21.88,-6.81 25.44,-7.52l-1.55 -6.34 -30.98 8.75 0 0z"/>
   <path class="fil1" d="M191.39 339.83l0.13 5.08c2.75,-0.39 6.44,-3.23 7.73,-4.49l1 23.21 5.87 -0.08c0.75,-2.14 -0.68,-28.04 -0.78,-32.63l-5.19 0.08c-1.4,5.42 -7.1,7.28 -8.76,8.83l0 0z"/>
   <polygon class="fil1" points="30.29,197.62 62.75,198.75 62.95,192.17 30.52,191.06 "/>
   <path class="fil1" d="M128.92 339.38c1.42,1.14 9.42,4.89 11.25,5.1 0.55,-1.89 1.81,-3.49 2.2,-5.63 -2.95,-0.91 -8.24,-4.24 -10.9,-4.58l-2.55 5.1 0 0.01z"/>
   <path class="fil1" d="M172.99 352.66l12.13 1.55 0.59 -5.86c-2.63,-0.37 -10.22,-1.61 -12.13,-1.22l-0.59 5.53z"/>
   <path class="fil1" d="M24.5 166.3l5.64 4.03c0.93,-3.69 1.13,-3.44 -0.76,-5.89 -1.31,-1.68 -2.16,-3.07 -3.53,-4.64 -0.91,1.24 -1.37,4.62 -1.35,6.5z"/>
  </g>
  <path id="Fill-5" class="fil0" d="M661.83 132.26l-25.52 25c-10.02,-11.56 -24.74,-18.67 -42.9,-18.67 -32.48,0 -56.08,23.86 -56.08,58.51 0,36.3 24.74,59.03 55.46,59.03 28.93,0 45.82,-13.97 50.52,-39.22l-45.18 0 0 -29.57 81.72 0c0.38,3.42 0.51,6.73 0.51,10.02 0,53.8 -36.43,91.76 -86.82,91.76 -49.23,0 -92.89,-34.65 -92.89,-92.02 0,-53.68 39.22,-92.14 93.8,-92.14 28.16,0 51.64,10.15 67.37,27.3l0.01 0z"/>
  <g id="_2164283996464">
   <path id="Fill-7" class="fil0" d="M725.78 224.39c0,19.93 13.97,33.88 32.62,33.88 18.67,0 32.75,-13.95 32.75,-33.88 0,-19.93 -14.08,-33.89 -32.75,-33.89 -18.65,0 -32.62,13.96 -32.62,33.89l0 0zm99.26 0c0,37.06 -28.31,64.73 -66.64,64.73 -38.2,0 -66.37,-27.67 -66.37,-64.73 0,-37.05 28.17,-64.72 66.37,-64.72 38.33,0 66.64,27.67 66.64,64.72z"/>
  </g>
  <path id="Fill-9" class="fil0" d="M841.91 285.94l33.12 0 0 -122.98 -33.12 0 0 122.98zm37.56 -163.21c0,11.93 -9.25,21.07 -21.19,21.07 -11.94,0 -21.07,-9.14 -21.07,-21.07 0,-11.92 9.13,-21.32 21.07,-21.32 11.94,0 21.19,9.4 21.19,21.32l0 0z"/>
  <path id="Fill-11" class="fil0" d="M938.48 145.32l25.51 -39.97 39.59 0 -33.5 39.97 -31.6 0 0 0zm-12.56 79.07c0,18.78 12.31,33.88 31.73,33.88 18.9,0 31.72,-14.46 31.72,-33.88 0,-19.42 -12.82,-33.89 -31.72,-33.89 -19.42,0 -31.73,15.11 -31.73,33.89l0 0zm94.81 61.55l-32.37 0 0 -13.57c-7.99,9.89 -19.93,16.75 -36.8,16.75 -33.89,0 -59.53,-27.8 -59.53,-64.73 0,-36.94 25.64,-64.72 59.53,-64.72 16.87,0 28.68,6.86 36.8,16.88l0 -13.59 32.37 0 0 122.98 0 0z"/>
  <path id="Fill-12" class="fil0" d="M1133.54 197.23c-9.77,-4.82 -25.38,-9.89 -39.21,-10.02 -12.56,0 -18.91,4.43 -18.91,11.16 0,7.11 8.89,8.88 20.05,10.53l10.91 1.66c26.66,4.06 41.51,15.99 41.51,36.8 0,25.38 -20.81,41.76 -56.48,41.76 -16.75,0 -38.71,-3.18 -54.7,-14.48l13.06 -25.11c10.55,6.97 23.37,12.05 41.89,12.05 15.36,0 22.73,-4.33 22.73,-11.55 0,-5.97 -6.23,-9.26 -20.44,-11.29l-10.04 -1.41c-28.42,-3.93 -42.5,-16.36 -42.5,-37.3 0,-25.27 19.55,-40.23 51.9,-40.23 19.67,0 35.03,3.68 51.4,11.67l-11.17 25.76 0 0z"/>
  <polygon id="Fill-13" class="fil0" points="1352.09,285.94 1219.33,285.94 1219.33,108.27 1351.07,108.27 1351.07,140.75 1254.74,140.75 1254.74,180.1 1346.62,180.1 1346.62,212.59 1254.74,212.59 1254.74,253.46 1352.09,253.46 "/>
  <path id="Fill-14" class="fil0" d="M1417.81 264.36c0,13.33 -11.41,24.76 -24.49,24.76 -13.2,0 -24.74,-11.43 -24.74,-24.76 0,-13.2 11.54,-24.48 24.74,-24.48 13.08,0 24.49,11.28 24.49,24.48z"/>
  <path id="Fill-15" class="fil0" d="M1593.34 144.81l-30.47 18.67c-10.02,-15.36 -26.15,-24.49 -45.93,-24.49 -32.26,0 -56.1,23.59 -56.1,58.11 0.12,35.66 24.75,58.13 56.1,58.13 19.67,0 35.65,-8.88 46.31,-24.37l28.95 20.81c-15.74,23.11 -42.53,37.58 -75.01,37.58 -54.71,0 -93.29,-38.71 -93.29,-92.15 0,-53.43 38.58,-92.14 93.29,-92.14 32.74,0 61.68,14.98 76.15,39.86l0 -0.01z"/>
  <path id="Fill-16" class="fil0" d="M1653.48 264.36c0,13.33 -11.41,24.76 -24.49,24.76 -13.2,0 -24.74,-11.43 -24.74,-24.76 0,-13.2 11.54,-24.48 24.74,-24.48 13.08,0 24.49,11.28 24.49,24.48z"/>
 </g>
</svg>
